<svg xmlns="http://www.w3.org/2000/svg" width="80" height="480" viewBox="0 0 80 480" fill="none"><path d="M80 240H0V320H80V240Z" fill="#16113B"></path><g clip-path="url(#clip0_1_15)"><path d="M52.2152 425.162L92.8852 384.492L72.2461 363.844L92.8852 343.205L72.2461 322.566L108.165 286.647" stroke="#7BADDE" stroke-width="0.8" stroke-linecap="square"></path><path d="M0 374.163L10.3195 384.492L0 394.812" stroke="#7BADDE" stroke-width="0.8" stroke-linecap="square"></path><path d="M0 332.885L10.3195 343.205L0 353.524" stroke="#7BADDE" stroke-width="0.8" stroke-linecap="square"></path><path d="M0 250.32L10.3195 240" stroke="#7BADDE" stroke-width="0.8" stroke-linecap="square"></path><path d="M0 270.959L30.9585 240" stroke="#7BADDE" stroke-width="0.8" stroke-linecap="square"></path><path d="M0 291.607L51.6071 240" stroke="#7BADDE" stroke-width="0.8" stroke-linecap="square"></path><path d="M0 312.246L72.2461 240" stroke="#7BADDE" stroke-width="0.8" stroke-linecap="square"></path><path d="M96.135 236.75L10.3195 322.566L30.9586 343.205L10.3195 363.844L30.9586 384.492L-9.71133 425.162" stroke="#7BADDE" stroke-width="0.8" stroke-linecap="square"></path><path d="M108.165 245.359L30.9585 322.566L51.6071 343.205L30.9585 363.844L51.6071 384.492L10.9277 425.162" stroke="#7BADDE" stroke-width="0.8" stroke-linecap="square"></path><path d="M108.165 265.998L51.6072 322.566L72.2462 343.205L51.6072 363.844L72.2462 384.492L31.5668 425.162" stroke="#7BADDE" stroke-width="0.8" stroke-linecap="square"></path><path d="M106.502 394.764L76.104 425.162" stroke="#7BADDE" stroke-width="0.8" stroke-linecap="square"></path></g><defs><clipPath id="clip0_1_15"><rect width="80" height="160" fill="white" transform="translate(0 240)"></rect></clipPath></defs></svg>