<svg xmlns="http://www.w3.org/2000/svg" xmlns:xlink="http://www.w3.org/1999/xlink" id="Laag_1" x="0px" y="0px" viewBox="0 0 271.3 114.5" xml:space="preserve"><g>	<path fill="#281F6B" d="M1.6,79V41.9H8V79H1.6z M8.2,60.7l14.2-18.8H30L15.5,60.1L31,79h-7.7L8.2,60.7z"></path>	<path fill="#281F6B" d="M38.7,66.7c0.2,2.4,1.1,4.2,2.9,5.6c1.7,1.4,3.8,2,6.1,2c1.9,0,3.5-0.2,5-0.7c1.5-0.4,2.9-1.1,4.3-2V77  c-1.2,0.8-2.7,1.5-4.4,1.9c-1.7,0.4-3.5,0.7-5.4,0.7c-2.9,0-5.4-0.6-7.6-1.7c-2.2-1.2-3.9-2.8-5.1-5c-1.2-2.1-1.8-4.7-1.8-7.5  c0-2.9,0.6-5.4,1.7-7.6c1.2-2.2,2.8-4,4.8-5.2c2-1.2,4.3-1.8,6.8-1.8c3.9,0,6.9,1.1,8.9,3.4c2,2.3,3,5.4,3,9.3v3.1H38.7V66.7z   M52.1,62.6c-0.1-2.2-0.6-3.8-1.7-5c-1-1.1-2.6-1.7-4.6-1.7c-1.8,0-3.3,0.6-4.5,1.8c-1.2,1.2-2.1,2.8-2.5,4.9H52.1z"></path>	<path fill="#281F6B" d="M64.6,53.1c1.9-0.7,4-1.3,6.2-1.7c2.2-0.4,4.4-0.6,6.4-0.6c3.7,0,6.6,0.8,8.6,2.4c2,1.6,3,4.3,3,8.1V79  h-6.1V61.8c0-3.6-2-5.4-5.9-5.4c-2.2,0-4.2,0.3-6,0.8V79h-6.2V53.1z"></path>	<path fill="#281F6B" d="M96.9,53.1c1.9-0.7,4-1.3,6.2-1.7c2.2-0.4,4.4-0.6,6.4-0.6c3.7,0,6.6,0.8,8.6,2.4c2,1.6,3,4.3,3,8.1V79  h-6.1V61.8c0-3.6-2-5.4-5.9-5.4c-2.2,0-4.2,0.3-6,0.8V79h-6.2V53.1z"></path>	<path fill="#281F6B" d="M129.7,45.6c-0.8-0.8-1.2-1.7-1.2-2.8c0-1,0.4-1.9,1.2-2.7c0.8-0.7,1.7-1.1,2.7-1.1c1,0,1.9,0.4,2.7,1.1  c0.8,0.7,1.2,1.6,1.2,2.7c0,1.1-0.4,2-1.2,2.8c-0.8,0.8-1.7,1.2-2.7,1.2C131.4,46.8,130.5,46.4,129.7,45.6z M135.5,51.3V79h-6.2  V51.3H135.5z"></path>	<path fill="#281F6B" d="M142.8,71.5c1.3,1,2.7,1.8,4.2,2.3c1.5,0.5,2.9,0.8,4.3,0.8c1.4,0,2.5-0.3,3.3-0.8s1.2-1.3,1.2-2.3  c0-1.1-0.4-1.9-1.2-2.4c-0.8-0.5-2.1-1.1-4-1.6c-2.9-0.7-5-1.6-6.3-2.9c-1.3-1.3-1.9-3.1-1.9-5.5c0-2.7,0.9-4.8,2.7-6.2  c1.8-1.4,4.2-2.2,7.1-2.2c3,0,5.6,0.7,7.9,2.1v5.7c-1.3-0.9-2.5-1.6-3.8-2.1c-1.2-0.5-2.5-0.7-4-0.7c-1.3,0-2.3,0.3-3,0.9  c-0.7,0.6-1.1,1.3-1.1,2.2c0,0.9,0.3,1.6,1,2.2c0.6,0.5,1.8,1,3.4,1.5c3.2,0.7,5.5,1.7,6.9,3.1c1.4,1.3,2.1,3.2,2.1,5.7  c0,2.8-0.9,4.9-2.8,6.3c-1.9,1.4-4.4,2.1-7.6,2.1c-1.6,0-3.2-0.2-4.7-0.6c-1.5-0.4-2.8-0.9-3.8-1.7V71.5z"></path></g><g>	<path fill="#281F6B" d="M0.3,95.8v-3.3h15.3v3.2L4.2,110.8h11.8v3.3H0v-3.3l11.3-15.1H0.3z"></path>	<path fill="#281F6B" d="M32.8,113.8c-0.9,0.2-2,0.4-3.1,0.5c-1.1,0.1-2.2,0.2-3.2,0.2c-2.5,0-4.3-0.5-5.6-1.4  c-1.3-0.9-1.9-2.5-1.9-4.6V98h3.6v10.2c0,1.2,0.3,2,1,2.5c0.7,0.5,1.6,0.8,2.8,0.8c0.9,0,1.8-0.1,2.8-0.2V98h3.6V113.8z"></path>	<path fill="#281F6B" d="M38,94.7c-0.4-0.4-0.7-1-0.7-1.6c0-0.6,0.2-1.1,0.7-1.6c0.4-0.4,1-0.7,1.6-0.7c0.6,0,1.1,0.2,1.6,0.7  c0.4,0.4,0.7,1,0.7,1.6c0,0.6-0.2,1.2-0.7,1.6c-0.4,0.5-1,0.7-1.6,0.7C39,95.3,38.4,95.1,38,94.7z M41.4,98v16.1h-3.6V98H41.4z"></path>	<path fill="#281F6B" d="M60.6,113.8c-1.8,0.5-3.8,0.7-6.1,0.7c-2.9,0-5.1-0.7-6.8-2.2c-1.7-1.5-2.5-3.5-2.5-6.2  c0-1.7,0.4-3.2,1.1-4.5c0.7-1.3,1.8-2.3,3.1-2.9c1.3-0.7,2.8-1,4.4-1c0.6,0,1.2,0.1,1.8,0.2s1.1,0.3,1.4,0.5v-8.9h3.6V113.8z   M57,101.4c-0.8-0.4-1.7-0.6-3-0.6c-1.6,0-2.8,0.5-3.8,1.4c-1,0.9-1.4,2.2-1.4,3.8c0,1.7,0.5,3,1.5,4c1,0.9,2.4,1.4,4.2,1.4  c0.9,0,1.7,0,2.4-0.1V101.4z"></path>	<path fill="#281F6B" d="M65,106.3V103H74v3.2H65z"></path>	<path fill="#281F6B" d="M93.5,101.6v-9.1h3.7v21.6h-3.7v-9.2H82.4v9.2h-3.7V92.5h3.7v9.1H93.5z"></path>	<path fill="#281F6B" d="M102.3,101.7c0.7-1.3,1.7-2.3,3-3c1.3-0.7,2.7-1.1,4.3-1.1c1.6,0,3,0.4,4.3,1.1c1.3,0.7,2.3,1.7,3,3  c0.7,1.3,1.1,2.7,1.1,4.4c0,1.6-0.4,3.1-1.1,4.4c-0.7,1.3-1.7,2.3-3,3c-1.3,0.7-2.7,1.1-4.3,1.1c-1.6,0-3-0.4-4.3-1.1  c-1.3-0.7-2.3-1.7-3-3c-0.7-1.3-1.1-2.7-1.1-4.4C101.2,104.4,101.6,103,102.3,101.7z M112.9,102.2c-0.9-1-2-1.5-3.4-1.5  c-1.4,0-2.5,0.5-3.4,1.5s-1.3,2.3-1.3,3.9c0,1.6,0.4,2.9,1.3,3.9c0.9,1,2,1.5,3.4,1.5c1.4,0,2.5-0.5,3.4-1.5c0.9-1,1.3-2.3,1.3-3.9  C114.2,104.4,113.8,103.1,112.9,102.2z"></path>	<path fill="#281F6B" d="M125.2,89.4v24.8h-3.6V89.4H125.2z"></path>	<path fill="#281F6B" d="M133.8,89.4v24.8h-3.6V89.4H133.8z"></path>	<path fill="#281F6B" d="M146.8,103.3c0-0.8-0.3-1.5-0.8-1.9c-0.6-0.4-1.3-0.6-2.3-0.6c-1.6,0-3.1,0.4-4.7,1.3v-3.1  c1.6-0.9,3.3-1.3,5.2-1.3c1.9,0,3.4,0.4,4.4,1.3c1.1,0.9,1.6,2.3,1.6,4.2v10.7c-0.8,0.2-1.6,0.4-2.6,0.5c-1,0.1-2,0.2-2.9,0.2  c-2.3,0-4-0.4-5.3-1.2c-1.3-0.8-1.9-2-1.9-3.8c0-1.6,0.6-2.8,1.9-3.6c1.3-0.8,3.1-1.2,5.5-1.2h1.8V103.3z M145.3,107.1  c-1.3,0-2.3,0.2-3.1,0.6c-0.7,0.4-1.1,1-1.1,1.8s0.3,1.4,1,1.8c0.7,0.4,1.6,0.6,2.7,0.6c0.6,0,1.2-0.1,2-0.2v-4.5H145.3z"></path>	<path fill="#281F6B" d="M155.1,99c1.1-0.4,2.3-0.8,3.6-1c1.3-0.2,2.6-0.4,3.8-0.4c2.2,0,3.9,0.5,5,1.4c1.2,0.9,1.7,2.5,1.7,4.7  v10.4h-3.6v-10c0-2.1-1.2-3.2-3.5-3.2c-1.3,0-2.5,0.2-3.5,0.5v12.7h-3.6V99z"></path>	<path fill="#281F6B" d="M188.2,113.8c-1.8,0.5-3.8,0.7-6.1,0.7c-2.9,0-5.1-0.7-6.8-2.2c-1.7-1.5-2.5-3.5-2.5-6.2  c0-1.7,0.4-3.2,1.1-4.5c0.7-1.3,1.8-2.3,3.1-2.9c1.3-0.7,2.8-1,4.4-1c0.6,0,1.2,0.1,1.8,0.2c0.6,0.1,1.1,0.3,1.4,0.5v-8.9h3.6  V113.8z M184.6,101.4c-0.8-0.4-1.7-0.6-3-0.6c-1.6,0-2.8,0.5-3.8,1.4c-1,0.9-1.4,2.2-1.4,3.8c0,1.7,0.5,3,1.5,4  c1,0.9,2.4,1.4,4.2,1.4c0.9,0,1.7,0,2.4-0.1V101.4z"></path></g><g>	<polygon fill="#EFCC36" points="212.7,86.1 212.1,85.7 211.2,85.7 208.6,83.8 205.6,82.5 203.7,79.6 199.5,75.8 192.3,72 184.5,67   184.8,66.4 183.3,66 184.4,65.5 185.4,65.5 185,64.9 183.9,64.9 181.8,65.9 180.5,65.7 177.9,67 174.7,67.7 172.1,69.1 171,70.8   171.8,74.4 172.4,74.2 173.3,74.7 174.4,73.8 174,73.1 174.4,72.7 175.4,73.1 175.9,72.4 178.6,71.8 178.9,71.4 180.4,71.4   180.9,71.7 181.9,71.7 182.5,71.6 183.6,72.3 183.4,72.7 185.6,76 184.9,77.1 185.5,77.9 184.7,78 185,79 185.8,79.3 186.5,79.7   187.6,83.5 189,84.7 192.8,84.6 196.2,86.2 197.3,88 199.1,88.1 199.6,88.7 201.9,89.3 202.9,91.2 207,92.3 208.5,91.7 212.6,90.8   214.1,89.4 214.4,88.5 214.6,87.6 213.2,86.7  "></polygon></g><g>	<polygon fill="#EFCC36" points="177,73.7 175.1,75.8 175.9,76.1 177.6,75.1 180.4,75.4 177.8,73.2  "></polygon></g><g>	<polygon fill="#EFCC36" points="209.3,82.5 210.2,83 211.9,83.1 213.1,82.5 213.6,82.4 213.7,82 213.4,81.7 212.4,81.4 210.1,80.4   206.5,79.2 206.2,79.4 205.6,79.2 205.1,79.8 208.9,82.5  "></polygon></g><g>	<path fill="#EFCC36" d="M264.9,56.1l-0.2-1.3l-0.4-0.3l-0.6,0.5l-0.5-2.5l-0.6-0.6l-1,1.4l-3.2,0.6l-1.2-4l-0.8-1l-1-0.1l-2.1-3.5  l3.3-0.7l-0.8-1.7l-1.9,0.1l-1.7,0.6l-0.5-1.2l0.9-0.7c0,0-0.2-0.8-0.3-0.9c0-0.1,0.8-0.4,0.8-0.4l1.3-1.9l1.2-0.9l1.9-0.6l0.5-1  l-2.2-0.1l-1.5,0.3l0.3-1.1l-0.8-0.2l0.2-4.3l-2.8-2.2l1.4-0.6l0.2-1.5l2-0.8l1.8,1l1.7-0.2l-0.1-2.3l1.6-0.8l-3.1-2.4l-1.1,0  l-2.2-2.9l-1.1-0.1l-0.1-0.9l0-1.4l-0.6-1l-1.2-0.5l-1.4,1.3l-1.8,0.7l-0.9,1l-0.8-1.3l0.1-2.1l-1.9-0.2l-1.9,1.2l-0.7-0.8  l-2.4,1.4l-2.4,0.9l-2.7-0.8l-1.7,0.3l-1.1-1.3l0.9-0.9l0.8-3.4l0-1.5l1.6-1.5c0,0,0.7-1.4,0.7-1.6c0.1-0.1,0.6-1.7,0.6-1.7  l0.8-1.3l-1.8-0.8l-1.6,0.4l-0.7,0.9L226.4,0c0,0-1.6,3.5-1.7,3.7s-5,9.6-5.2,9.9c-0.1,0.3-3.6,5.8-3.6,5.8l-5.8,7.6l-4,3.7  l-2.7,3.6l-2,2.1l-1-0.1l-1.1,0.8l-0.2,1.7l-1.4,1.6l-1.4,2.2l-4.4,4l-3.9-1.4l-0.5,1.5l-1-0.6l-1.1,0.5l-1.2-0.5l-1.9,0.6  l-1.7,2.8l1.2,5.4l0.8,0.4l0.9,0.9l1.4-0.2l0.4-0.8l1.9-0.3l1.5,1.3l-0.6,0.5l-2,3.2l3.4,5.5l2.2,2.7l1.4,0l0.2,0.7l2,0.5l1.8-0.3  l1.9,2.5l1.6,0.2l2.6,2l-0.2,1.3l1.9,2l5.2,1.5l7.2,4.2l3.2,1.2l2.8,0.2l5.1,2l2.7-0.6l2.2-0.8l1.8-1l2.2-0.6l1.6-0.8l1.3-0.8  l1.5-0.2l2.2-0.9l2.4-2.3l0.5-1.7l1-1.7l3.3-2.3l2.6,0.5l1.2,0l1.9-0.8l2.7-2.3l2.6-1.2l1.6,0.6l4.3,0.9l2.8,0.3l0.5-3l-2.7-0.5  l-0.4-2.4l1.8,0.4l1.2,0v-0.8l-0.6-0.5l0.5-1.4l-0.2-0.8l-2.4,1.4l-0.2-1l0.6-0.5l-0.6-1.1l0.4-0.5l-0.3-0.9l-1.8,0.8l-0.1-1.5  l-0.8-0.2v-0.6l-0.8-0.3"></path></g></svg>