<svg width="240" height="80" viewBox="0 0 240 80" fill="none" xmlns="http://www.w3.org/2000/svg">
<path d="M126.081 26.4131C126.936 26.0331 128.266 25.748 129.596 25.748C132.257 25.748 134.062 27.2682 134.062 29.8336C134.062 32.5889 132.352 34.2041 129.596 34.2041C129.026 34.2041 128.551 34.1091 128.361 34.0141V37.2445H126.176V26.4131H126.081ZM128.266 32.1138C128.551 32.2089 128.931 32.3039 129.406 32.3039C130.831 32.3039 131.877 31.5438 131.877 29.9286C131.877 28.5034 130.926 27.7433 129.596 27.7433C129.121 27.7433 128.646 27.8383 128.266 27.9333V32.1138Z" fill="#281F6B"/>
<path d="M137.957 34.0143H135.867V26.6034C136.722 26.1283 137.862 25.8433 139.097 25.8433C139.762 25.8433 140.142 25.9383 140.808 26.0333V28.1235C140.237 27.9335 139.667 27.8385 139.192 27.8385C138.812 27.8385 138.432 27.9335 138.052 28.0285V34.0143H137.957Z" fill="#281F6B"/>
<path d="M145.843 25.748C148.219 25.748 150.024 27.4583 150.024 29.9286C150.024 32.3989 148.219 34.1091 145.843 34.1091C143.468 34.1091 141.663 32.3989 141.663 29.9286C141.663 27.4583 143.373 25.748 145.843 25.748ZM145.843 27.6483C144.703 27.6483 143.848 28.5034 143.848 30.0236C143.848 31.5438 144.703 32.3989 145.843 32.3989C146.984 32.3989 147.839 31.5438 147.839 30.0236C147.839 28.5034 146.984 27.6483 145.843 27.6483Z" fill="#281F6B"/>
<path d="M153.539 34.0142L150.404 25.9382H152.779L154.87 31.829L156.96 25.9382H159.24L156.2 34.0142H153.539Z" fill="#281F6B"/>
<path d="M160.19 23.4679C160.19 22.7078 160.76 22.1377 161.52 22.1377C162.185 22.1377 162.85 22.7078 162.85 23.4679C162.85 24.1329 162.28 24.703 161.52 24.703C160.855 24.798 160.19 24.228 160.19 23.4679ZM162.66 34.0142H160.475V25.9382H162.66V34.0142Z" fill="#281F6B"/>
<path d="M164.941 26.4131C166.081 25.9381 167.601 25.748 168.741 25.748C170.831 25.748 172.162 26.5081 172.162 28.8834V33.9191H169.976V28.9785C169.976 28.0283 169.501 27.6483 168.551 27.6483C167.981 27.6483 167.506 27.7433 167.031 27.8383V33.9191H164.846V26.4131H164.941Z" fill="#281F6B"/>
<path d="M180.428 28.4084C179.763 27.8383 179.098 27.6483 178.337 27.6483C177.007 27.6483 176.057 28.5034 176.057 29.9286C176.057 31.2588 177.007 32.2089 178.432 32.2089C179.193 32.2089 179.858 31.9239 180.428 31.4488V33.444C179.668 33.9191 178.907 34.0141 178.052 34.0141C175.487 34.0141 173.777 32.3989 173.777 29.8336C173.777 27.2683 175.582 25.6531 178.052 25.6531C179.002 25.6531 179.668 25.8431 180.333 26.2231V28.4084H180.428Z" fill="#281F6B"/>
<path d="M182.138 23.4679C182.138 22.7078 182.708 22.1377 183.468 22.1377C184.133 22.1377 184.798 22.7078 184.798 23.4679C184.798 24.1329 184.228 24.703 183.468 24.703C182.803 24.798 182.138 24.228 182.138 23.4679ZM184.608 34.0142H182.423V25.9382H184.608V34.0142Z" fill="#281F6B"/>
<path d="M188.409 30.4987C188.599 31.6388 189.644 32.2089 190.784 32.2089C191.829 32.2089 192.684 31.9239 193.444 31.4488V33.254C192.684 33.8241 191.639 34.0141 190.499 34.0141C187.839 34.0141 186.223 32.3989 186.223 29.9286C186.223 27.2683 187.934 25.6531 190.119 25.6531C192.589 25.6531 193.634 27.2683 193.634 29.4536V30.4987H188.409ZM191.639 29.2635C191.639 28.3134 191.164 27.5533 190.119 27.5533C189.169 27.5533 188.599 28.2184 188.409 29.2635H191.639Z" fill="#281F6B"/>
<path d="M125.511 41.3301H133.302V43.3253L127.981 50.0712H133.397V52.0664H125.416V50.0712L130.641 43.3253H125.511V41.3301Z" fill="#281F6B"/>
<path d="M142.138 51.7815C141.188 52.0665 139.858 52.1615 138.812 52.1615C136.532 52.1615 135.012 51.4014 135.012 49.0261V43.8955H137.197V48.8361C137.197 49.8813 137.672 50.3563 138.812 50.3563C139.097 50.3563 139.573 50.3563 139.953 50.2613V43.8955H142.138V51.7815Z" fill="#281F6B"/>
<path d="M144.133 41.5201C144.133 40.76 144.703 40.1899 145.463 40.1899C146.128 40.1899 146.793 40.76 146.793 41.5201C146.793 42.1852 146.223 42.7553 145.463 42.7553C144.703 42.8503 144.133 42.2802 144.133 41.5201ZM146.508 52.0664H144.323V43.9904H146.508V52.0664Z" fill="#281F6B"/>
<path d="M156.105 51.7816C155.154 52.0666 153.919 52.1616 152.779 52.1616C150.024 52.1616 148.124 50.6414 148.124 47.9811C148.124 45.4158 149.834 43.8006 152.304 43.8006C152.874 43.8006 153.444 43.8956 153.824 44.0856V39.8101H156.01V51.7816H156.105ZM154.014 45.9858C153.634 45.7958 153.254 45.7008 152.684 45.7008C151.354 45.7008 150.499 46.5559 150.499 47.9811C150.499 49.5013 151.449 50.3564 152.969 50.3564C153.254 50.3564 153.634 50.3564 154.014 50.2614V45.9858Z" fill="#281F6B"/>
<path d="M171.021 41.3301H173.302V52.0664H171.021V47.6959H166.176V52.0664H163.896V41.3301H166.176V45.7006H171.021V41.3301Z" fill="#281F6B"/>
<path d="M179.097 43.8005C181.473 43.8005 183.278 45.5108 183.278 47.9811C183.278 50.4514 181.473 52.1616 179.097 52.1616C176.722 52.1616 174.917 50.4514 174.917 47.9811C174.917 45.5108 176.722 43.8005 179.097 43.8005ZM179.097 45.7008C177.957 45.7008 177.102 46.5559 177.102 48.0761C177.102 49.5963 177.957 50.4514 179.097 50.4514C180.238 50.4514 181.093 49.5963 181.093 48.0761C181.093 46.5559 180.238 45.7008 179.097 45.7008Z" fill="#281F6B"/>
<path d="M187.174 52.0664H184.988V39.7148H187.174V52.0664Z" fill="#281F6B"/>
<path d="M191.544 52.0664H189.359V39.7148H191.544V52.0664Z" fill="#281F6B"/>
<path d="M197.72 46.7457C197.72 45.9856 197.055 45.6056 196.295 45.6056C195.345 45.6056 194.584 45.8906 194.014 46.2706V44.3704C194.774 43.9904 195.725 43.7053 196.675 43.7053C198.48 43.7053 199.905 44.4654 199.905 46.5557V51.7813C199.145 51.9714 197.91 52.0664 196.865 52.0664C194.869 52.0664 193.254 51.4963 193.254 49.5961C193.254 47.8858 194.584 47.1258 196.865 47.1258H197.72V46.7457ZM197.72 48.6459H196.96C195.915 48.6459 195.345 48.931 195.345 49.5961C195.345 50.2611 195.915 50.5462 196.77 50.5462C196.96 50.5462 197.34 50.5462 197.625 50.4512V48.6459H197.72Z" fill="#281F6B"/>
<path d="M201.805 44.4656C202.945 43.9906 204.466 43.8005 205.606 43.8005C207.696 43.8005 209.026 44.5606 209.026 46.9359V51.9716H206.841V47.0309C206.841 46.0808 206.366 45.7008 205.416 45.7008C204.846 45.7008 204.371 45.7958 203.896 45.8908V51.9716H201.71V44.4656H201.805Z" fill="#281F6B"/>
<path d="M218.622 51.7816C217.672 52.0666 216.437 52.1616 215.297 52.1616C212.542 52.1616 210.641 50.6414 210.641 47.9811C210.641 45.4158 212.352 43.8006 214.822 43.8006C215.392 43.8006 215.962 43.8956 216.342 44.0856V39.8101H218.527V51.7816H218.622ZM216.437 45.9858C216.057 45.7958 215.677 45.7008 215.107 45.7008C213.777 45.7008 212.922 46.5559 212.922 47.9811C212.922 49.5013 213.872 50.3564 215.392 50.3564C215.677 50.3564 216.057 50.3564 216.437 50.2614V45.9858Z" fill="#281F6B"/>
<path d="M157.91 47.9809V50.5462L161.995 47.6959V45.2256L157.91 47.9809Z" fill="#281F6B"/>
<path d="M103.848 63.0879H118.575L115.914 60.8076L118.29 58.6223H103.943L103.563 62.7078C103.468 62.8978 103.658 63.0879 103.848 63.0879Z" fill="#EFCC36"/>
<path d="M54.3467 61.0927H80.19H106.033V58.6224H104.133C103.943 58.6224 103.848 58.3374 103.943 58.2424L105.558 57.1022C105.748 57.0072 105.653 56.7222 105.368 56.7222H80.19H54.9168C54.7268 56.7222 54.6318 57.0072 54.7268 57.1022L56.342 58.2424C56.532 58.3374 56.437 58.6224 56.1519 58.6224H54.2517V61.0927H54.3467Z" fill="#EFCC36"/>
<path d="M41.8052 63.0879H56.532C56.722 63.0879 56.9121 62.8978 56.9121 62.7078L56.532 58.6223H42.0902L44.4655 60.8076L41.8052 63.0879Z" fill="#EFCC36"/>
<path d="M80.1899 55.4869C86.7457 55.4869 93.0165 51.7815 93.0165 42.0903V25.9382H67.3633V42.0903C67.3633 51.7815 73.6341 55.4869 80.1899 55.4869Z" fill="#EFCC36"/>
<path d="M89.501 21.2828C89.501 21.6628 89.691 22.0429 90.0711 22.0429C90.4511 22.0429 90.6411 21.6628 90.6411 21.2828C90.6411 20.9027 90.4511 20.6177 90.0711 20.6177C89.691 20.6177 89.501 20.9977 89.501 21.2828Z" fill="#EFCC36"/>
<path d="M76.8645 22.0429C77.2446 22.0429 77.4346 21.6628 77.4346 21.2828C77.4346 20.9027 77.2446 20.6177 76.8645 20.6177C76.4845 20.6177 76.2944 20.9027 76.2944 21.2828C76.2944 21.6628 76.4845 22.0429 76.8645 22.0429Z" fill="#EFCC36"/>
<path d="M82.9453 21.2826C82.9453 21.6627 83.1353 22.0427 83.5154 22.0427C83.8954 22.0427 84.0854 21.6627 84.0854 21.2826C84.0854 20.9026 83.8954 20.6175 83.5154 20.6175C83.1353 20.5225 82.9453 20.9026 82.9453 21.2826Z" fill="#EFCC36"/>
<path d="M93.9667 17.7673L92.5415 18.4323C92.3515 18.7174 92.3515 19.1924 92.5415 19.7625L92.0664 19.2875C91.7814 19.0974 91.5914 18.9074 91.4014 18.9074C91.2113 18.9074 91.0213 19.0024 90.9263 19.2875L90.7363 19.7625L91.5914 21.3777L90.1662 23.0879L88.646 21.3777L89.8812 19.6675L89.7862 19.0974C89.6912 18.8124 89.5011 18.6224 89.3111 18.6224C89.0261 18.6224 88.741 18.7174 87.9809 19.0974C88.646 18.4323 88.741 18.0523 88.741 17.3872L87.5059 15.677H86.4607L85.2256 17.3872C85.2256 17.9573 85.3206 18.4323 85.8907 19.0974C85.0356 18.7174 84.7505 18.5274 84.4655 18.5274C84.2755 18.5274 84.0855 18.7174 83.9904 19.0024L83.8954 19.5725L85.0356 21.2827L83.3254 23.0879L81.7102 21.1877L83.0403 19.5725L82.9453 19.1924C82.8503 18.8124 82.7553 18.5274 82.3752 18.5274C82.0902 18.5274 81.7102 18.6224 81.0451 19.0024C81.7102 18.3373 81.7102 17.8623 81.7102 17.2922L80.475 15.677H80.095H79.8099L78.5748 17.2922C78.5748 17.8623 78.6698 18.3373 79.2399 19.0024C78.5748 18.6224 78.1947 18.5274 77.9097 18.5274C77.5296 18.5274 77.3396 18.8124 77.3396 19.1924L77.2446 19.5725L78.5748 21.1877L76.9596 23.0879L75.2493 21.2827L76.3895 19.5725L76.2945 19.0024C76.1995 18.7174 76.0094 18.5274 75.8194 18.5274C75.5344 18.5274 75.2494 18.6224 74.3942 19.0974C74.9643 18.4323 75.0593 18.0523 75.0593 17.3872L73.8242 15.677H72.9691L71.7339 17.3872C71.7339 17.9573 71.8289 18.4323 72.494 19.0974C71.7339 18.7174 71.4489 18.6224 71.1638 18.6224C70.8788 18.6224 70.6888 18.8124 70.6888 19.0974L70.5938 19.6675L71.8289 21.3777L70.3087 23.1829L68.8836 21.4727L69.7387 19.8575L69.5486 19.3825C69.3586 19.0974 69.2636 19.0024 68.9786 19.0024C68.7885 19.0024 68.5985 19.0974 68.3135 19.3825L67.8384 19.8575C68.0285 19.2875 68.0285 18.8124 67.8384 18.5274L66.4133 17.8623L66.0332 18.0523L68.2185 24.7031H80.19H92.1615L94.3467 18.0523L93.9667 17.7673Z" fill="#EFCC36"/>
<path d="M70.3088 22.1378C70.6889 22.1378 70.8789 21.7578 70.8789 21.3777C70.8789 20.9977 70.6889 20.7126 70.3088 20.7126C69.9288 20.7126 69.7388 20.9977 69.7388 21.3777C69.7388 21.7578 69.9288 22.1378 70.3088 22.1378Z" fill="#EFCC36"/>
<path d="M67.7435 52.9217C67.3634 52.9217 66.9834 53.1117 66.7934 53.3017L66.2233 53.6818H65.3682L60.8076 49.2162C61.8527 49.2162 62.8979 48.7412 63.658 48.1711C59.9525 46.5559 59.6675 42.6604 56.7221 41.0452C55.867 41.2352 54.6318 41.9003 54.2518 42.5654C54.5368 42.7554 54.6318 42.9454 54.6318 43.3255C54.6318 43.8956 54.1568 44.2756 53.4917 44.1806C53.3967 43.8956 53.3017 43.5155 53.3017 43.2305C53.3017 42.4704 53.6817 41.9953 54.2518 41.6153C55.3919 40.7602 57.3872 40.2851 58.8124 38.3849C57.2922 37.6248 56.5321 36.7697 56.152 35.3445C55.5819 35.6295 55.0119 35.8195 54.1568 35.8195C53.3967 35.8195 52.6366 35.6295 51.8765 35.2495C51.6865 36.6746 51.2114 38.0998 50.3563 39.525C48.8361 41.8053 46.9359 42.7554 45.4157 42.7554C43.7055 42.7554 42.5653 41.9953 42.5653 40.8552C42.5653 39.62 43.5154 38.7649 45.7007 38.0998C48.4561 37.1497 49.5012 36.3896 49.5012 34.8694C49.5012 34.2994 49.3112 33.7293 48.8361 33.3492C49.0261 33.0642 49.1211 32.6841 49.1211 32.3991C49.1211 31.9241 48.9311 31.259 48.4561 30.7839L46.2708 28.6937C45.9857 28.9787 45.5107 29.1687 45.0356 29.1687C44.1805 29.1687 43.4204 28.5036 43.4204 27.4585C42.5653 27.7435 41.9952 28.5036 41.9952 29.4537C41.9952 30.0238 42.1853 30.5939 42.6603 30.9739L43.4204 31.734V33.2542C43.6104 33.1592 43.8955 33.0642 44.0855 33.0642C44.6556 33.0642 45.0356 33.3492 45.5107 33.7293C45.9857 34.2043 46.4608 34.3944 47.0309 34.3944C47.3159 34.3944 47.6009 34.2994 47.886 34.2043C48.076 34.3944 48.171 34.5844 48.171 34.8694C48.171 35.6295 46.9359 36.1996 45.1306 36.7697C42.5653 37.5298 41.1401 38.8599 41.1401 40.7602C41.1401 42.9454 42.9454 44.1806 45.4157 44.1806C45.9857 44.1806 46.4608 44.1806 46.9359 43.9906L47.6009 47.221H42.5653C42.8504 47.696 42.9454 47.9811 42.9454 48.4561C42.9454 49.2162 42.2803 50.1663 41.5202 50.8314L45.9857 57.4823H49.2161C49.9762 57.4823 50.3563 57.0072 50.5463 56.4371H50.8314L51.3064 55.677C51.1164 55.0119 50.2613 54.5369 49.4062 54.5369C48.9311 54.5369 48.4561 55.297 48.171 55.772C46.7458 54.7269 45.7957 53.5868 45.7957 52.1616C45.7957 50.9264 46.5558 49.7863 48.266 49.7863C49.1211 49.7863 50.0713 50.0713 51.1164 50.9264L54.3468 47.8861L53.7767 44.9407C55.962 45.3207 57.5772 46.1758 57.5772 47.696C57.5772 48.4561 57.1972 49.1212 56.4371 49.5963L64.133 55.582H69.6437L69.7387 54.1568L68.7886 53.3017C68.3135 53.1117 68.0285 52.9217 67.7435 52.9217Z" fill="#D32939"/>
<path d="M117.72 48.5511C117.72 48.076 117.815 47.791 118.1 47.3159H113.064L113.729 44.0855C114.204 44.1805 114.679 44.2756 115.249 44.2756C117.72 44.2756 119.525 43.0404 119.525 40.8551C119.525 38.9549 118.1 37.7197 115.535 36.8646C113.729 36.2946 112.494 35.6295 112.494 34.9644C112.494 34.6794 112.589 34.4893 112.779 34.2993C113.064 34.3943 113.349 34.4893 113.634 34.4893C114.204 34.4893 114.679 34.2993 115.154 33.8242C115.63 33.4442 116.01 33.1592 116.58 33.1592C116.77 33.1592 117.055 33.2542 117.245 33.3492V31.829L118.005 31.0689C118.385 30.6889 118.67 30.1188 118.67 29.5487C118.67 28.5986 118.005 27.7435 117.245 27.5535C117.245 28.5036 116.485 29.2637 115.63 29.2637C115.154 29.2637 114.679 29.0737 114.394 28.7886L112.209 30.8789C111.734 31.3539 111.544 31.924 111.544 32.4941C111.544 32.7791 111.639 33.1592 111.829 33.4442C111.449 33.8243 111.164 34.3943 111.164 34.9644C111.164 36.4846 112.304 37.2447 114.964 38.1948C117.15 38.9549 118.1 39.715 118.1 40.9501C118.1 42.0903 116.96 42.8504 115.249 42.8504C113.634 42.8504 111.734 41.9003 110.309 39.43C109.454 38.0048 108.979 36.5796 108.789 35.1544C108.124 35.5345 107.268 35.7245 106.508 35.7245C105.653 35.7245 105.083 35.5345 104.513 35.2494C104.133 36.6746 103.373 37.5297 101.853 38.2898C103.183 40.19 105.273 40.6651 106.413 41.5202C106.888 41.9003 107.363 42.4703 107.363 43.1354C107.363 43.5155 107.268 43.8005 107.173 44.0855C106.508 44.0855 106.033 43.7055 106.033 43.2304C106.033 42.9454 106.223 42.6604 106.413 42.4703C105.938 41.8053 104.798 41.1402 103.943 40.9501C100.998 42.6604 100.713 46.4608 97.0072 48.076C97.7673 48.6461 98.7174 49.0262 99.8575 49.1212L95.297 53.6817H94.4419L93.8718 53.3017C93.6818 53.1117 93.3017 52.9216 92.9217 52.9216C92.5416 52.9216 92.3516 53.1117 92.0666 53.3017L91.1165 54.1568L91.2115 55.582H96.7222L104.418 49.5962C103.658 49.1212 103.278 48.4561 103.278 47.696C103.278 46.1758 104.893 45.3207 107.078 44.9406L106.508 47.886L109.739 50.9264C110.784 50.1663 111.734 49.7862 112.589 49.7862C114.299 49.7862 115.059 50.9264 115.059 52.1615C115.059 53.5867 114.014 54.7269 112.684 55.772C112.399 55.2019 111.924 54.5368 111.449 54.5368C110.689 54.5368 109.739 55.0119 109.549 55.677L110.024 56.4371H110.309C110.499 57.0072 110.879 57.4822 111.639 57.4822H114.869L119.335 50.8314C118.385 50.2613 117.72 49.3112 117.72 48.5511Z" fill="#D32939"/>
<path d="M96.3419 37.0547C96.0569 37.5298 95.9619 38.1949 95.8669 38.7649C95.7719 39.43 95.4868 40.1901 94.8218 41.1402L94.4417 41.6153L94.0617 41.3303C93.4916 41.3303 93.1115 41.6153 92.9215 42.0904C92.8265 42.2804 92.8265 42.5654 92.8265 42.8505V43.1355C92.3514 43.3255 92.1614 43.6106 92.0664 43.9906C92.0664 44.0856 92.0664 44.1806 92.0664 44.3706L92.3514 45.0357L92.4465 45.1307H93.1115C93.1115 45.3208 93.1115 45.5108 93.2065 45.6058C93.3016 45.8908 93.3966 46.0809 93.5866 46.1759L93.7766 46.2709C93.7766 46.2709 93.8716 46.3659 93.9666 46.3659C94.0617 46.4609 94.2517 46.4609 94.3467 46.4609C94.6317 46.4609 95.1068 46.1759 95.3918 45.9859C95.4868 46.1759 95.6769 46.2709 95.8669 46.2709C96.0569 46.2709 96.2469 46.1759 96.437 46.0809L96.627 45.8908L96.817 45.7008C97.007 45.5108 97.102 45.2258 97.102 45.0357C97.102 44.7507 96.817 44.2756 96.437 44.0856L96.532 43.8956L97.3871 44.4657C97.7671 43.6106 97.2921 42.8505 97.2921 42.1854C97.2921 41.5203 97.8621 40.9502 98.9073 40.0951C99.5723 39.525 99.9524 39.05 100.332 38.2899C100.332 37.3398 100.142 36.3897 99.6674 35.8196C98.7172 36.7697 97.8621 37.1497 96.3419 37.0547Z" fill="#D32939"/>
<path d="M86.6508 43.6106C88.0759 43.6106 89.2161 42.8505 89.2161 41.6154C89.2161 40.4752 88.456 39.7151 86.8408 39.2401C85.7006 38.86 84.9405 38.575 84.9405 38.0049C84.9405 37.9099 85.0356 37.7199 85.1306 37.6249C85.3206 37.7199 85.5106 37.7199 85.6056 37.7199C85.9857 37.7199 86.2707 37.6249 86.5557 37.3398C86.8408 37.0548 87.1258 36.9598 87.4109 36.9598C87.6009 36.9598 87.6959 36.9598 87.7909 37.0548V36.1047L88.266 35.6296C88.551 35.3446 88.646 35.0595 88.646 34.6795C88.646 34.1094 88.266 33.6344 87.7909 33.4443C87.7909 33.9194 87.4109 34.4895 86.8408 34.4895C86.5557 34.4895 86.2707 34.3945 86.0807 34.2044L84.7505 35.5346C84.5605 35.7246 84.3705 36.0097 84.3705 36.4847C84.3705 36.6747 84.4655 36.8648 84.5605 37.0548C84.2755 37.3398 84.1804 37.7199 84.1804 38.0049C84.1804 38.86 84.8455 39.3351 86.4607 39.9051C87.7909 40.3802 88.266 40.7602 88.266 41.6154C88.266 42.2804 87.6009 42.7555 86.5557 42.7555C85.6056 42.7555 84.4655 42.2804 83.6104 40.6652C82.9453 39.5251 82.7553 38.86 82.7553 38.1949C81.9002 38.575 81.1401 38.575 80.285 38.2899C79.9999 38.955 79.4299 39.6201 78.6698 40.0002C78.9548 40.6652 80.475 41.5203 81.1401 41.8054C81.8052 42.0904 81.9002 42.5655 81.9002 42.9455C81.9002 43.1355 81.8051 43.4206 81.7101 43.5156C81.2351 43.5156 81.0451 43.2306 81.0451 43.0405C81.0451 42.8505 81.1401 42.6605 81.3301 42.5655C81.0451 42.1854 80.57 41.9954 80.0949 41.8054C78.3847 42.7555 77.6246 45.0358 75.6294 45.9859C76.1994 46.461 76.7695 46.556 77.3396 46.651L74.5842 49.4063H74.0142L73.6341 49.1213C73.5391 49.0263 73.3491 48.9313 73.1591 48.9313C72.969 48.9313 72.779 49.0263 72.684 49.1213L72.0189 49.6914L71.7339 50.5465H75.3443L79.9999 46.936C79.5249 46.651 79.3348 46.2709 79.3348 45.8909C79.3348 45.0358 80.38 44.3707 81.6151 44.0857L81.2351 45.8909L83.1353 47.6961C83.7054 47.2211 84.4655 46.936 85.0356 46.936C85.8907 46.936 86.4607 47.5061 86.4607 48.3612C86.4607 49.4063 85.7956 50.3565 85.1306 50.8315C84.9405 50.3565 84.6555 50.0714 84.3705 50.0714C84.0854 50.0714 83.4203 50.3565 83.3253 50.8315L83.6104 51.3066H83.8004C83.8954 51.6866 84.1804 51.9717 84.6555 51.9717H86.5557L89.2161 47.8861C88.741 47.5061 88.361 47.031 88.361 46.366C88.361 46.0809 88.456 45.8909 88.551 45.6059H85.5106L85.8907 43.6106C86.0807 43.6106 86.3657 43.6106 86.6508 43.6106Z" fill="#D32939"/>
<path d="M63.753 33.9194C63.753 33.0643 64.5131 32.3992 64.5131 31.4491C64.5131 30.594 64.2281 30.0239 63.373 29.6439C64.5131 29.6439 65.4632 28.8838 65.4632 28.3137C63.753 28.3137 62.8979 26.4135 60.7126 26.4135C59.0974 26.4135 58.9074 27.1736 57.8623 27.1736C57.0072 27.1736 57.0072 26.7935 55.772 26.7935V26.5085C56.5321 26.4135 57.1972 26.3184 57.8623 26.7935C58.2423 26.5085 58.3373 26.2234 58.3373 26.0334C58.3373 25.5584 57.9573 25.2733 57.5772 25.1783C57.4822 24.7032 57.3872 24.4182 57.0072 24.3232L56.8171 25.0833C55.677 25.0833 55.392 25.5584 54.7269 25.5584C54.1568 25.5584 53.9668 25.1783 53.7768 24.6082C53.7768 24.3232 53.6818 24.0382 53.6818 23.7531C53.6818 23.6581 53.6818 23.5631 53.6818 23.4681C53.7768 21.6629 54.2518 21.0928 54.9169 21.0928C55.582 21.0928 55.867 21.5679 56.9122 21.7579L57.0072 22.518C57.2922 22.518 57.5772 22.2329 57.7673 21.8529C58.6224 21.9479 59.0024 21.7579 59.0024 20.7127V19.7626L59.1924 19.4776V18.3374L57.4822 17.7674L57.1022 17.8624L56.8171 17.3873L54.7269 17.1023L54.2518 17.4823H51.3065C50.8314 17.4823 50.5464 17.6724 50.5464 17.9574C50.5464 18.2424 50.8314 18.6225 51.1164 18.9075C49.0262 19.2876 48.3611 20.5227 48.3611 21.3778C48.3611 22.803 48.7411 22.803 48.7411 24.6082C48.7411 25.3683 48.5511 26.1284 47.791 26.8885L50.4513 29.5489C51.4015 30.499 51.6865 31.2591 51.6865 31.9241C51.6865 32.4942 51.4015 33.1593 50.8314 33.6344C51.6865 34.5845 52.8266 35.0595 53.9668 35.0595C54.9169 35.0595 55.677 34.7745 56.4371 34.2044C56.6271 36.4847 57.6723 37.2448 59.3825 38.0049C59.4775 36.5797 59.9525 35.6296 60.7126 34.9645C61.4727 36.1047 62.2328 36.5797 63.278 36.5797C64.4181 36.5797 64.9882 36.0097 65.0832 35.4396C64.1331 35.2496 63.753 34.5845 63.753 33.9194ZM56.5321 18.6225C56.4371 18.7175 56.3421 18.8125 56.1521 18.8125C56.057 19.0025 55.772 19.2876 55.392 19.2876C55.0119 19.2876 54.7269 19.0975 54.5369 18.8125C54.9169 18.5275 55.582 18.4325 56.5321 18.6225Z" fill="#D32939"/>
<path d="M66.5082 21.948V21.4729V21.3779C66.5082 20.9979 66.4132 20.6178 66.1281 20.5228C66.0331 20.4278 65.9381 20.4278 65.8431 20.4278H65.5581C65.5581 20.1427 65.4631 19.9527 65.273 19.8577C65.178 19.7627 64.988 19.7627 64.798 19.7627C64.3229 19.7627 63.9429 19.9527 63.6578 20.4278C63.2778 20.4278 62.8977 20.9028 62.8977 21.6629C62.8977 22.6131 64.1329 22.8981 63.7529 23.6582L62.2327 26.2235C63.5628 26.6986 63.9429 27.3636 65.083 27.6487L65.9381 24.4183C66.1281 23.6582 67.1733 23.5632 67.1733 22.8031C67.1733 22.7081 67.1733 22.518 67.0783 22.423C67.0783 22.423 67.0783 22.328 66.9833 22.328L66.5082 21.948Z" fill="#D32939"/>
<path d="M77.2448 38.7651C76.5797 39.3352 75.6296 39.5252 74.9645 39.1452L73.9194 41.3305L73.6343 41.0454C73.3493 41.0454 73.1593 41.1404 73.0643 41.3305C72.9692 41.4255 72.8742 41.6155 72.8742 41.8055V41.9005V41.9955C72.5892 42.0906 72.4942 42.1856 72.3992 42.4706C72.3992 42.5656 72.3992 42.5656 72.3992 42.6606L72.4942 43.0407V43.1357L72.8742 43.2307C72.7792 43.4207 72.7792 43.6107 72.9692 43.8008L73.3493 44.1808C73.6343 44.2758 73.9194 44.1808 74.0144 43.9908C74.1094 44.1808 74.2044 44.1808 74.3944 44.1808L74.8695 43.9908H74.9645C75.0595 43.8958 75.0595 43.8008 75.0595 43.7058C75.0595 43.5157 74.8695 43.3257 74.7745 43.2307L74.8695 43.1357L75.1545 43.3257C75.4395 42.9457 75.1545 42.3756 75.4395 42.1856L77.8148 40.1903C77.5298 39.4302 77.3398 39.0502 77.2448 38.7651Z" fill="#D32939"/>
<path d="M72.4942 32.3992L72.3992 32.4942L72.3042 32.5892C72.3042 32.6843 72.3042 32.7793 72.3992 32.8743C72.4942 32.9693 72.5892 33.0643 72.6842 33.0643C72.8742 33.1593 73.1593 33.1593 73.3493 33.2543C73.4443 33.2543 73.5393 33.3493 73.5393 33.4443L74.5844 34.8695C74.6795 34.1094 75.2495 33.4443 75.7246 33.0643L74.5844 32.6843C74.2044 32.5892 74.2044 32.3042 74.2044 32.0192C74.2994 31.8291 74.3944 31.4491 74.2044 31.1641C74.1094 30.974 73.9194 30.784 73.7293 30.784C73.6343 30.784 73.5393 30.784 73.4443 30.784C73.3493 30.689 73.1593 30.594 72.9693 30.594C72.8742 30.594 72.6842 30.594 72.5892 30.689C72.4942 30.784 72.3992 30.879 72.3992 30.879C72.3042 30.974 72.3042 31.0691 72.3992 31.1641L72.3042 31.3541V31.4491C72.2092 31.6391 72.2092 31.8291 72.3042 32.0192L72.4942 32.3992Z" fill="#D32939"/>
<path d="M68.2186 44.0856C68.1236 43.7056 67.9336 43.4205 67.4585 43.2305V42.9455C67.4585 42.6604 67.4585 42.3754 67.3635 42.1854C67.1735 41.7103 66.6984 41.5203 66.2233 41.4253L65.7483 41.7103L65.5583 41.1402C64.8932 40.1901 64.7031 39.43 64.5131 38.7649C64.4181 38.0999 64.2281 37.5298 64.0381 37.0547C62.5179 37.1497 61.6628 36.8647 60.8077 35.8196C60.3326 36.3897 60.1426 37.3398 60.1426 38.2899C60.5226 39.05 60.9027 39.525 61.5678 40.0951C62.6129 41.0452 63.183 41.5203 63.183 42.1854C63.183 42.8505 62.7079 43.6106 63.0879 44.4657L63.9431 43.8956L64.0381 44.0856C63.658 44.3706 63.373 44.7507 63.373 45.0357C63.373 45.3208 63.468 45.5108 63.658 45.7008L63.848 45.8908L64.0381 46.0809C64.2281 46.2709 64.4181 46.2709 64.6081 46.2709C64.7982 46.2709 64.9882 46.1759 65.0832 45.9859C65.3682 46.1759 65.8433 46.4609 66.1283 46.4609C66.2233 46.4609 66.4134 46.4609 66.5084 46.3659C66.6034 46.3659 66.6034 46.2709 66.6984 46.2709L66.8884 46.1759C67.0784 46.0809 67.1735 45.8908 67.2685 45.6058C67.2685 45.4158 67.3635 45.3208 67.3635 45.1307H68.0286L68.1236 45.0357L68.4086 44.3706C68.3136 44.2756 68.3136 44.1806 68.2186 44.0856Z" fill="#D32939"/>
<path d="M85.0356 33.2542C84.6555 32.8742 84.4655 32.4941 84.4655 31.829C84.4655 31.164 84.7505 30.5939 84.7505 29.9288C84.7505 29.2637 84.3705 28.6937 83.0403 28.5036C83.2303 28.3136 83.4204 28.1236 83.4204 27.9336C83.4204 27.7435 83.2303 27.6485 82.9453 27.6485H81.1401L80.855 27.4585L79.6199 27.5535L79.4299 27.8385L79.2398 27.7435L78.1947 28.0286V28.6937L78.2897 28.8837V29.4537C78.2897 30.0238 78.5748 30.2138 79.0498 30.1188C79.1448 30.3089 79.3349 30.4989 79.5249 30.4989L79.6199 30.0238C79.9999 29.9288 80.57 29.6438 80.855 29.6438C81.3301 29.6438 81.6151 29.9288 81.6151 31.164V31.259C81.6151 31.449 81.6151 31.639 81.5201 31.829C81.4251 32.1141 81.2351 32.3041 81.0451 32.3041C80.475 32.3041 80.38 32.0191 79.8099 32.0191L79.7149 31.544C79.5249 31.639 79.3349 31.829 79.3349 32.1141C79.0498 32.1141 78.8598 32.3041 78.8598 32.5891C78.8598 32.7792 78.9548 32.9692 79.1448 33.1592C79.5249 32.8742 80.19 32.8742 80.76 33.0642V33.4442C79.9999 33.3492 79.7149 33.5393 79.1448 33.5393C78.5748 33.5393 78.2897 33.2542 77.3396 33.2542C76.1045 33.2542 75.0593 34.1093 75.0593 35.1545C75.0593 36.0096 75.4394 36.1996 75.4394 37.2447C75.4394 37.7198 75.0593 38.1948 74.4893 38.1948C74.6793 38.6699 75.1543 38.9549 75.6294 38.9549C76.3895 38.9549 76.9596 38.3849 77.1496 38.0048C77.6246 38.4799 77.9097 39.0499 78.0047 39.715C79.0498 39.24 79.6199 38.6699 79.8099 37.6248C80.19 38.0048 80.855 38.0998 81.2351 38.0998C81.8052 38.0998 82.5653 37.8148 83.1353 37.3397C82.9453 37.2447 82.5653 36.9597 82.5653 36.3896C82.5653 36.0096 82.7553 35.5345 83.3254 34.8694L85.0356 33.2542ZM80.475 28.6937C80.19 28.6937 80.095 28.5986 79.9999 28.4086C79.9049 28.4086 79.8099 28.3136 79.8099 28.3136C80.38 28.2186 80.76 28.2186 81.0451 28.4086C80.9501 28.5036 80.76 28.6937 80.475 28.6937Z" fill="#D32939"/>
<path d="M112.494 26.8885C111.734 26.1284 111.544 25.4633 111.544 24.6082C111.544 22.898 111.924 22.898 111.924 21.3778C111.924 20.4277 111.259 19.2876 109.169 18.9075C109.549 18.6225 109.739 18.2424 109.739 17.9574C109.739 17.6724 109.549 17.4823 108.979 17.4823H106.033L105.558 17.1023L103.468 17.3873L103.183 17.8624L102.803 17.7674L101.093 18.3374V19.4776L101.283 19.7626V20.7127C101.283 21.6629 101.663 21.9479 102.518 21.8529C102.708 22.2329 102.993 22.518 103.278 22.518L103.373 21.7579C104.418 21.4728 104.703 21.0928 105.368 21.0928C106.033 21.0928 106.603 21.6629 106.603 23.4681C106.603 23.5631 106.603 23.6581 106.603 23.7531C106.603 24.0382 106.603 24.3232 106.508 24.6082C106.413 25.1783 106.128 25.5584 105.558 25.5584C104.893 25.5584 104.608 25.1783 103.468 25.0833L103.278 24.3232C102.898 24.5132 102.803 24.7032 102.708 25.1783C102.328 25.2733 101.948 25.5584 101.948 26.0334C101.948 26.3184 102.043 26.6035 102.423 26.7935C103.088 26.2234 103.753 26.3184 104.513 26.5085V26.7935C103.278 26.7935 103.278 27.1736 102.423 27.1736C101.283 27.1736 101.188 26.4135 99.5724 26.4135C97.3871 26.4135 96.532 28.3137 94.8218 28.3137C94.8218 28.7888 95.6769 29.6439 96.912 29.6439C96.0569 30.1189 95.7719 30.594 95.7719 31.4491C95.7719 32.4942 96.532 33.0643 96.532 33.9194C96.532 34.5845 96.0569 35.2496 95.0118 35.2496C95.1068 35.7246 95.7719 36.3897 96.817 36.3897C97.8622 36.3897 98.7173 35.9146 99.3823 34.7745C100.142 35.4396 100.618 36.3897 100.713 37.8149C102.423 37.0548 103.468 36.2947 103.658 34.0144C104.323 34.5845 105.178 34.8695 106.128 34.8695C107.268 34.8695 108.408 34.3945 109.264 33.4443C108.694 33.0643 108.408 32.3992 108.408 31.7341C108.408 31.1641 108.599 30.404 109.644 29.3588L112.494 26.8885ZM104.988 19.2876C104.608 19.2876 104.323 19.0975 104.228 18.8125C104.038 18.8125 103.943 18.7175 103.848 18.6225C104.798 18.4325 105.463 18.5275 105.843 18.8125C105.653 19.0975 105.273 19.2876 104.988 19.2876Z" fill="#D32939"/>
<path d="M96.6272 23.5632C96.2471 22.8031 97.4823 22.5181 97.4823 21.568C97.4823 20.8079 97.1022 20.3328 96.7222 20.3328C96.5322 19.8577 96.0571 19.6677 95.582 19.6677C95.392 19.6677 95.297 19.7627 95.107 19.8577C94.917 19.9528 94.822 20.1428 94.822 20.4278H94.6319C94.5369 20.4278 94.4419 20.4278 94.3469 20.5228C94.0619 20.7129 93.8718 20.9979 93.9668 21.3779V21.473V21.948L93.4918 22.138C93.4918 22.138 93.4918 22.233 93.3968 22.233C93.3018 22.3281 93.3018 22.5181 93.3018 22.6131C93.3018 23.3732 94.3469 23.4682 94.5369 24.2283L95.392 27.4587C96.4372 27.1737 96.8172 26.5086 98.2424 26.0335L96.6272 23.5632Z" fill="#D32939"/>
<path d="M59.6675 59.8575L59.0024 57.9573H59.3825L59.8575 59.3825L60.3326 57.9573H60.7127L60.0476 59.8575H59.6675Z" fill="#D32939"/>
<path d="M61.6628 59.8575H61.2827V57.9573H61.6628V59.8575Z" fill="#D32939"/>
<path d="M63.6579 58.4324C63.5629 58.3374 63.3729 58.2423 63.0878 58.2423C62.7078 58.2423 62.5177 58.5274 62.5177 58.8124C62.5177 59.1925 62.8028 59.4775 63.0878 59.4775C63.1828 59.4775 63.2778 59.4775 63.2778 59.4775V58.9074H63.6579V59.6675C63.4679 59.7625 63.2778 59.7625 63.0878 59.7625C62.5177 59.7625 62.1377 59.3825 62.1377 58.8124C62.1377 58.2424 62.5177 57.8623 63.0878 57.8623C63.2778 57.8623 63.4679 57.8623 63.6579 57.9573V58.4324Z" fill="#D32939"/>
<path d="M64.703 59.8575H64.323V57.9573H64.703V59.8575Z" fill="#D32939"/>
<path d="M65.3682 57.9573H65.7482V59.4775H66.5083V59.8575H65.3682V57.9573Z" fill="#D32939"/>
<path d="M67.3635 59.3825L67.2685 59.8575H66.8884L67.6485 57.9573H68.1236L68.8837 59.8575H68.4086L68.2186 59.4775H67.3635V59.3825ZM67.7435 58.3373L67.4585 59.0974H68.0286L67.7435 58.3373Z" fill="#D32939"/>
<path d="M69.7389 59.8575H69.3589V58.3373H68.7888V57.9573H70.309V58.3373H69.7389V59.8575Z" fill="#D32939"/>
<path d="M72.0191 59.4775V59.8575H70.7839V57.9573H71.9241V58.3373H71.164V58.7174H71.9241V59.0974H71.164V59.4775H72.0191Z" fill="#D32939"/>
<path d="M74.1094 57.9573C74.2044 57.9573 74.4894 57.9573 74.6794 57.9573C75.3445 57.9573 75.7246 58.3373 75.7246 58.9074C75.7246 59.5725 75.3445 59.8575 74.6794 59.8575C74.4894 59.8575 74.2994 59.8575 74.1094 59.8575V57.9573ZM74.4894 59.4775C74.5844 59.4775 74.5844 59.4775 74.6794 59.4775C75.0595 59.4775 75.2495 59.2874 75.2495 58.8124C75.2495 58.4323 74.9645 58.2423 74.5844 58.2423C74.4894 58.2423 74.4894 58.2423 74.3944 58.2423V59.4775H74.4894Z" fill="#D32939"/>
<path d="M77.4346 59.4775V59.8575H76.1995V57.9573H77.3396V58.3373H76.5795V58.7174H77.3396V59.0974H76.5795V59.4775H77.4346Z" fill="#D32939"/>
<path d="M78.765 57.9573C79.3351 57.9573 79.7151 58.3373 79.7151 58.9074C79.7151 59.4775 79.3351 59.8575 78.765 59.8575C78.1949 59.8575 77.8149 59.4775 77.8149 58.9074C77.7199 58.3373 78.1949 57.9573 78.765 57.9573ZM78.765 58.2423C78.48 58.2423 78.1949 58.4323 78.1949 58.8124C78.1949 59.1924 78.48 59.3825 78.765 59.3825C79.05 59.3825 79.3351 59.1924 79.3351 58.8124C79.2401 58.5273 79.05 58.2423 78.765 58.2423Z" fill="#D32939"/>
<path d="M82.8505 58.4323C82.7555 58.3373 82.5655 58.2423 82.3755 58.2423C81.9954 58.2423 81.8054 58.5273 81.8054 58.8124C81.8054 59.1924 81.9954 59.3825 82.3755 59.3825C82.5655 59.3825 82.7555 59.2874 82.8505 59.1924V59.5725C82.6605 59.7625 82.4705 59.8575 82.2804 59.8575C81.7104 59.8575 81.3303 59.4775 81.3303 58.9074C81.3303 58.3373 81.7104 57.9573 82.2804 57.9573C82.4705 57.9573 82.6605 57.9573 82.7555 58.0523V58.4323H82.8505Z" fill="#D32939"/>
<path d="M84.1806 57.9573C84.7507 57.9573 85.1307 58.3373 85.1307 58.9074C85.1307 59.4775 84.7507 59.8575 84.1806 59.8575C83.6105 59.8575 83.2305 59.4775 83.2305 58.9074C83.2305 58.3373 83.7055 57.9573 84.1806 57.9573ZM84.1806 58.2423C83.8956 58.2423 83.6105 58.4323 83.6105 58.8124C83.6105 59.1924 83.8956 59.3825 84.1806 59.3825C84.4656 59.3825 84.7507 59.1924 84.7507 58.8124C84.7507 58.5273 84.5606 58.2423 84.1806 58.2423Z" fill="#D32939"/>
<path d="M86.9358 59.1924V57.9573H87.3159V59.8575H86.9358L86.0807 58.6224V59.8575H85.7007V57.9573H86.0807L86.9358 59.1924Z" fill="#D32939"/>
<path d="M87.886 59.8575V57.9573H88.9311V58.3373H88.361V58.8124H88.9311V59.1924H88.361V59.8575H87.886Z" fill="#D32939"/>
<path d="M89.8813 59.8575H89.5012V57.9573H89.8813V59.8575Z" fill="#D32939"/>
<path d="M90.5464 57.9573C90.6414 57.9573 90.9264 57.9573 91.1165 57.9573C91.7815 57.9573 92.1616 58.3373 92.1616 58.9074C92.1616 59.5725 91.7815 59.8575 91.1165 59.8575C90.9264 59.8575 90.7364 59.8575 90.5464 59.8575V57.9573ZM90.9264 59.4775C91.0214 59.4775 91.0214 59.4775 91.1165 59.4775C91.4965 59.4775 91.6865 59.2874 91.6865 58.8124C91.6865 58.4323 91.4015 58.2423 91.0214 58.2423C90.9264 58.2423 90.9264 58.2423 90.8314 58.2423V59.4775H90.9264Z" fill="#D32939"/>
<path d="M93.8719 59.4775V59.8575H92.6367V57.9573H93.7769V58.3373H93.1118V58.7174H93.8719V59.0974H93.1118V59.4775H93.8719Z" fill="#D32939"/>
<path d="M95.677 59.1924V57.9573H96.0571V59.8575H95.677L94.8219 58.6224V59.8575H94.4419V57.9573H94.8219L95.677 59.1924Z" fill="#D32939"/>
<path d="M97.4821 59.8575H97.1021V58.3373H96.532V57.9573H98.0522V58.3373H97.4821V59.8575Z" fill="#D32939"/>
<path d="M99.7625 59.4775V59.8575H98.5273V57.9573H99.6675V58.3373H98.9074V58.7174H99.6675V59.0974H98.9074V59.4775H99.7625Z" fill="#D32939"/>
<path d="M100.238 59.2875C100.333 59.3825 100.523 59.4775 100.713 59.4775C100.903 59.4775 100.998 59.3825 100.998 59.2875C100.998 59.1925 100.903 59.0975 100.713 59.0024C100.333 58.9074 100.143 58.7174 100.143 58.4324C100.143 58.0523 100.428 57.8623 100.713 57.8623C100.903 57.8623 101.093 57.9573 101.188 57.9573V58.3374C100.998 58.2424 100.903 58.1473 100.713 58.1473C100.523 58.1473 100.428 58.2424 100.428 58.3374C100.428 58.4324 100.523 58.5274 100.713 58.6224C101.093 58.7174 101.188 58.9074 101.188 59.1925C101.188 59.5725 100.903 59.7625 100.523 59.7625C100.333 59.7625 100.143 59.6675 100.048 59.6675V59.2875H100.238Z" fill="#D32939"/>
<path d="M89.9761 55.6771L89.8811 55.5821C89.9761 54.727 90.4512 54.3469 90.9262 54.3469L91.2113 55.4871C90.8312 55.3921 90.2611 55.3921 89.9761 55.6771Z" fill="#281F6B"/>
<path d="M91.7813 55.4871C92.2563 55.3921 92.7314 55.3921 93.0164 55.3921C92.8264 55.107 92.8264 54.917 92.8264 54.632C92.8264 54.5369 92.8264 54.4419 92.8264 54.3469C92.2563 54.4419 91.8763 54.727 91.6863 55.297L91.7813 55.4871Z" fill="#281F6B"/>
<path d="M95.3917 55.677H94.6316L94.5366 55.582C94.7266 55.107 95.1067 55.012 95.2967 55.012C95.3917 55.107 95.4867 55.297 95.4867 55.392C95.4867 55.487 95.4867 55.582 95.3917 55.677Z" fill="#281F6B"/>
<path d="M109.359 56.8173L109.264 56.7223C109.359 55.8672 109.834 55.2971 110.404 55.2971V56.5323C110.214 56.5323 109.644 56.5323 109.359 56.8173Z" fill="#281F6B"/>
<path d="M110.404 57.3872L110.309 57.1972C110.499 56.6271 110.879 56.3421 111.449 56.2471C111.354 56.3421 111.354 56.5321 111.354 56.6271C111.354 56.8171 111.449 57.1022 111.544 57.1972C111.354 57.1972 110.879 57.1972 110.404 57.3872Z" fill="#281F6B"/>
<path d="M113.919 57.5772H113.159L113.064 57.4822C113.254 57.0071 113.634 56.9121 113.824 56.9121C113.919 57.0071 114.014 57.1971 114.014 57.2922C114.014 57.3872 114.014 57.4822 113.919 57.5772Z" fill="#281F6B"/>
<path d="M85.5105 51.8766C85.6055 51.5916 85.7955 51.4966 85.9855 51.4966C86.0806 51.5916 86.0806 51.6866 86.0806 51.6866C86.0806 51.7816 86.0806 51.7816 85.9855 51.8766H85.5105Z" fill="#281F6B"/>
<path d="M83.8953 51.6866C84.1803 51.5916 84.4653 51.5915 84.6554 51.5915C84.5604 51.4965 84.5604 51.4015 84.5604 51.2115C84.5604 51.1165 84.5604 51.0215 84.5604 51.0215C84.1803 51.1165 83.8953 51.2115 83.8953 51.6866Z" fill="#281F6B"/>
<path d="M83.2302 51.4014C83.2302 50.4513 83.7053 50.4513 83.9903 50.5463L83.8953 51.2114C83.6103 51.2114 83.4202 51.2114 83.2302 51.4014Z" fill="#281F6B"/>
<path d="M74.2991 50.5463C74.3941 50.2613 74.5841 50.1663 74.7741 50.1663C74.8691 50.2613 74.8691 50.4513 74.7741 50.5463H74.2991Z" fill="#281F6B"/>
<path d="M72.5889 50.4515C72.8739 50.3564 73.1589 50.3564 73.349 50.3564C73.2539 50.2614 73.1589 50.1664 73.1589 50.0714C73.1589 49.9764 73.1589 49.8814 73.2539 49.7864C72.8739 49.7864 72.6839 49.9764 72.5889 50.4515Z" fill="#281F6B"/>
<path d="M71.4487 50.5463C71.4487 49.8812 71.7338 49.6912 72.0188 49.6912L72.2088 50.3562C72.0188 50.3562 71.6388 50.3562 71.4487 50.5463Z" fill="#281F6B"/>
<path d="M70.4036 55.6771C70.1186 55.3921 69.5485 55.3921 69.1685 55.3921L69.4535 54.252C69.9285 54.252 70.4986 54.632 70.4986 55.4871L70.4036 55.6771Z" fill="#281F6B"/>
<path d="M68.5984 55.4871L68.6934 55.297C68.5034 54.727 68.1234 54.4419 67.5533 54.3469C67.5533 54.4419 67.5533 54.5369 67.5533 54.632C67.5533 54.917 67.4583 55.107 67.3633 55.3921C67.6483 55.3921 68.1234 55.3921 68.5984 55.4871Z" fill="#281F6B"/>
<path d="M64.9881 55.677C64.8931 55.582 64.8931 55.487 64.8931 55.392C64.8931 55.297 64.9881 55.107 65.0831 55.012C65.2731 55.012 65.6532 55.202 65.8432 55.582L65.7482 55.677H64.9881Z" fill="#281F6B"/>
<path d="M51.0212 56.8173C50.7362 56.5323 50.1661 56.5323 49.9761 56.5323V55.2971C50.5461 55.2971 51.1162 55.7722 51.1162 56.7223L51.0212 56.8173Z" fill="#281F6B"/>
<path d="M49.9761 57.3872C49.5011 57.2922 49.026 57.2922 48.741 57.2922C48.836 57.1021 48.931 56.9121 48.931 56.7221C48.931 56.5321 48.836 56.4371 48.836 56.342C49.406 56.4371 49.7861 56.7221 49.9761 57.2922V57.3872Z" fill="#281F6B"/>
<path d="M46.5557 57.5772C46.4607 57.4822 46.4607 57.3872 46.4607 57.2922C46.4607 57.1971 46.5557 57.0071 46.6507 56.9121C46.8407 56.9121 47.2208 57.1021 47.4108 57.4822L47.3158 57.5772H46.5557Z" fill="#281F6B"/>
<path d="M92.1615 44.0854C91.6865 44.3705 91.3064 44.8455 91.3064 45.4156L91.4964 45.5106C91.7815 45.3206 92.1615 45.2256 92.4466 45.1306L92.1615 44.4655C92.1615 44.2755 92.1615 44.1805 92.1615 44.0854Z" fill="#281F6B"/>
<path d="M95.772 46.4609C95.867 46.6509 95.962 46.8409 95.962 46.9359H96.152C96.342 46.6509 96.437 46.3658 96.437 46.0808L96.247 46.2708C96.152 46.3658 95.962 46.4609 95.772 46.4609Z" fill="#281F6B"/>
<path d="M92.9217 42.0903C92.3517 42.1853 91.7816 42.5654 91.5916 43.0404L91.6866 43.1355C92.1616 43.0404 92.5417 43.0404 92.9217 43.0404V42.7554C92.8267 42.5654 92.8267 42.2804 92.9217 42.0903Z" fill="#281F6B"/>
<path d="M93.4918 46.2708C93.3018 46.1757 93.2067 45.9857 93.1117 45.7007C92.8267 46.1757 92.8267 46.7458 93.1117 47.2209H93.3017C93.3968 46.9358 93.5868 46.6508 93.8718 46.4608C93.7768 46.4608 93.7768 46.3658 93.6818 46.3658L93.4918 46.2708Z" fill="#281F6B"/>
<path d="M53.7765 24.4182C54.5366 23.7531 55.2967 23.4681 56.1518 23.4681C57.957 23.4681 58.5271 24.2282 59.9523 24.2282C61.2825 24.2282 62.0426 23.6581 62.0426 22.518C62.0426 21.6628 61.5675 21.0928 60.7124 21.0928C60.1423 21.0928 59.4772 21.3778 59.4772 22.0429C59.4772 22.518 59.8573 22.898 60.2373 22.898C60.5224 22.898 60.5224 22.708 60.7124 22.708C60.8074 22.708 60.9024 22.803 60.9024 22.898C60.9024 23.088 60.6174 23.4681 59.9523 23.4681C58.9072 23.4681 57.862 22.613 56.3418 22.613C55.3917 22.613 54.6316 22.803 53.8715 23.278C53.8715 23.3731 53.8715 23.4681 53.8715 23.5631C53.6815 23.9431 53.6815 24.2282 53.7765 24.4182Z" fill="#281F6B"/>
<path d="M67.2682 21.2827C66.9831 21.2827 66.7931 21.3777 66.5081 21.4727V21.9478L66.9831 22.1378C66.9831 22.1378 66.9831 22.2328 67.0781 22.2328C67.2682 21.9478 67.5532 21.6628 67.8382 21.5678V21.3777C67.6482 21.2827 67.3632 21.2827 67.2682 21.2827Z" fill="#281F6B"/>
<path d="M65.558 20.3326H65.7481C65.8431 20.3326 65.9381 20.3326 66.0331 20.4276C66.2231 20.2376 66.5081 20.0476 66.6982 19.9526V19.7625C66.5081 19.6675 66.2231 19.5725 65.9381 19.5725C65.653 19.5725 65.463 19.6675 65.178 19.7625C65.463 19.8575 65.653 20.0476 65.558 20.3326Z" fill="#281F6B"/>
<path d="M73.5391 30.7839C73.6341 30.6889 73.7291 30.6889 73.8241 30.7839C73.6341 30.4989 73.254 30.3088 72.969 30.3088V30.4039C73.064 30.4989 73.064 30.4989 73.159 30.5939C73.254 30.6889 73.444 30.6889 73.5391 30.7839Z" fill="#281F6B"/>
<path d="M72.4939 32.4941L72.5889 32.399L72.3989 32.114C72.1139 32.209 72.0188 32.304 71.9238 32.399V32.4941C72.0188 32.4941 72.3039 32.4941 72.4939 32.4941Z" fill="#281F6B"/>
<path d="M72.3989 33.3492V33.4442C72.5889 33.5392 72.874 33.5392 73.349 33.3492C73.159 33.2542 72.874 33.2542 72.684 33.1592C72.589 33.2542 72.4939 33.3492 72.3989 33.3492Z" fill="#281F6B"/>
<path d="M72.4939 31.2589C72.3989 31.1639 72.3989 31.0689 72.4939 30.9739C72.2089 30.9739 72.0189 30.9739 71.8289 31.0689V31.1639C71.9239 31.2589 72.1139 31.3539 72.3039 31.3539V31.2589H72.4939Z" fill="#281F6B"/>
<path d="M74.2041 43.9906C74.2991 44.1806 74.2991 44.2756 74.2991 44.4656H74.3941C74.5842 44.2756 74.6792 43.9906 74.6792 43.8005L74.2041 43.9906Z" fill="#281F6B"/>
<path d="M72.779 44.2756H72.874C72.969 44.1806 73.064 44.0856 73.1591 43.9906L72.779 43.7056C72.684 43.8956 72.684 44.0856 72.779 44.2756Z" fill="#281F6B"/>
<path d="M72.3039 42.4705C72.1139 42.5655 71.9238 42.7555 71.9238 43.0405L72.0188 43.1355C72.1139 43.1355 72.3039 43.0405 72.3989 43.0405L72.3039 42.6605C72.3039 42.5655 72.3039 42.5655 72.3039 42.4705Z" fill="#281F6B"/>
<path d="M72.9691 41.4253C72.684 41.4253 72.494 41.6153 72.304 41.8053V41.9003C72.399 41.9003 72.589 41.9004 72.779 41.9954V41.9003C72.779 41.7103 72.874 41.5203 72.9691 41.4253Z" fill="#281F6B"/>
<path d="M67.5535 42.8504V43.1354C67.9335 43.1354 68.3136 43.1354 68.7886 43.2304L68.8836 43.1354C68.6936 42.5654 68.1235 42.1853 67.5535 42.1853C67.5535 42.2803 67.5535 42.5653 67.5535 42.8504Z" fill="#281F6B"/>
<path d="M64.0379 46.1759L63.8479 45.9858C63.8479 46.2709 63.9429 46.6509 64.1329 46.8409H64.323C64.323 46.6509 64.418 46.4609 64.513 46.3659C64.418 46.4609 64.228 46.3659 64.0379 46.1759Z" fill="#281F6B"/>
<path d="M66.6983 46.4607C66.6983 46.4607 66.6033 46.5557 66.5083 46.5557C66.6983 46.8408 66.8884 47.1258 67.0784 47.3158H67.2684C67.5534 46.8408 67.5534 46.1757 67.2684 45.7957C67.1734 46.0807 67.0784 46.2707 66.8884 46.3657L66.6983 46.4607Z" fill="#281F6B"/>
<path d="M69.0735 45.4156C69.0735 44.9406 68.6934 44.3705 68.2184 44.0854C68.2184 44.1805 68.2184 44.2755 68.2184 44.4655L67.9333 45.1306C68.2184 45.2256 68.5984 45.4156 68.8835 45.5106L69.0735 45.4156Z" fill="#281F6B"/>
<path d="M81.52 31.1639C81.045 30.8789 80.5699 30.7839 79.9998 30.7839C79.0497 30.7839 78.3846 31.259 77.8145 31.259C77.3395 31.259 77.2445 31.0689 77.2445 30.8789C77.2445 30.7839 77.3395 30.7839 77.3395 30.7839C77.4345 30.7839 77.4345 30.8789 77.6245 30.8789C77.9096 30.8789 78.0996 30.6889 78.0996 30.3088C78.0996 29.8338 77.7195 29.7388 77.3395 29.7388C76.8644 29.7388 76.4844 30.1188 76.4844 30.5939C76.4844 31.259 77.0544 31.639 77.7195 31.639C78.7647 31.639 78.9547 31.1639 79.9998 31.1639C80.4749 31.1639 80.9499 31.354 81.33 31.734C81.425 31.544 81.425 31.449 81.425 31.1639C81.52 31.259 81.52 31.1639 81.52 31.1639Z" fill="#281F6B"/>
<path d="M106.698 23.278C105.938 22.803 105.178 22.613 104.228 22.613C102.613 22.613 101.567 23.4681 100.617 23.4681C99.8573 23.4681 99.6672 23.088 99.6672 22.898C99.6672 22.708 99.7623 22.708 99.8573 22.708C100.047 22.708 100.047 22.898 100.332 22.898C100.712 22.898 101.092 22.518 101.092 22.0429C101.092 21.2828 100.427 21.0928 99.8573 21.0928C99.0022 21.0928 98.5271 21.6628 98.5271 22.518C98.5271 23.5631 99.2872 24.2282 100.617 24.2282C102.043 24.2282 102.613 23.4681 104.418 23.4681C105.273 23.4681 105.938 23.7531 106.793 24.4182C106.793 24.1332 106.888 23.8481 106.888 23.5631C106.698 23.4681 106.698 23.3731 106.698 23.278Z" fill="#281F6B"/>
<path d="M94.8218 20.3326C94.8218 20.0476 94.9168 19.8575 95.1068 19.7625C94.9168 19.6675 94.6318 19.5725 94.3468 19.5725C94.0617 19.5725 93.8717 19.5725 93.5867 19.7625V19.9526C93.7767 20.0476 94.0617 20.2376 94.2517 20.4276C94.3468 20.3326 94.4418 20.3326 94.5368 20.3326H94.8218Z" fill="#281F6B"/>
<path d="M93.8717 21.9478V21.4727C93.6816 21.3777 93.3966 21.2827 93.1115 21.2827C92.9215 21.2827 92.7315 21.2827 92.6365 21.3777V21.5678C92.9215 21.7578 93.2066 22.0428 93.3966 22.2328C93.3966 22.2328 93.3966 22.1378 93.4916 22.1378L93.8717 21.9478Z" fill="#281F6B"/>
</svg>
