<svg xmlns="http://www.w3.org/2000/svg" width="169" height="17" viewBox="0 0 169 17" fill="none"><g clip-path="url(#clip0_653_39050)"><path d="M0 1.62988H2.41V12.9099H0V1.62988ZM6.33 1.62988H9.14L5.13 7.13988L9.4 12.9199H6.55L2.47 7.34988L6.33 1.62988Z" fill="#281F6B"></path><path d="M12.9199 12.9196H10.6399V5.08957C11.5699 4.59957 12.7899 4.30957 14.0199 4.30957C14.6899 4.30957 15.1599 4.36957 15.7899 4.53957V6.73957C15.2399 6.50957 14.6299 6.44957 14.0799 6.44957C13.6599 6.44957 13.2799 6.52957 12.9199 6.63957V12.9096V12.9196Z" fill="#281F6B"></path><path d="M21.3899 7.37C21.3899 6.55 20.7099 6.21 19.8699 6.21C18.8599 6.21 18.0799 6.51 17.4199 6.91V4.93C18.1799 4.49 19.1899 4.25 20.2699 4.25C22.2099 4.25 23.6499 5.01 23.6499 7.27V12.74C22.8299 12.93 21.5399 13.08 20.4599 13.08C18.3099 13.08 16.6599 12.43 16.6599 10.48C16.6599 8.71 18.0799 7.88 20.4599 7.88H21.3899V7.37ZM21.3899 9.35H20.6299C19.5699 9.35 18.9399 9.65 18.9399 10.38C18.9399 11.11 19.5299 11.42 20.4399 11.42C20.6899 11.42 21.0899 11.4 21.3899 11.33V9.35Z" fill="#281F6B"></path><path d="M32.2001 7.05C31.5001 6.48 30.8101 6.27 30.0301 6.27C28.6201 6.27 27.6201 7.14 27.6201 8.66C27.6201 10.18 28.5901 11.09 30.1301 11.09C30.9301 11.09 31.6301 10.82 32.2801 10.33V12.48C31.5201 12.94 30.6801 13.11 29.8101 13.11C27.0701 13.11 25.3301 11.36 25.3301 8.7C25.3301 6.04 27.2101 4.25 29.7901 4.25C30.7601 4.25 31.4801 4.44 32.2001 4.88V7.05Z" fill="#281F6B"></path><path d="M34.2 0H36.4799V4.62C36.8799 4.47 37.66 4.26 38.57 4.26C40.41 4.26 41.88 5.1 41.88 7.6V12.92H39.58V7.75C39.58 6.8 39.07 6.31 38.08 6.31C37.53 6.31 36.9399 6.39 36.4799 6.56V12.92H34.2V0Z" fill="#281F6B"></path><path d="M43.05 4.45035H44.32V2.36035H46.6V4.45035H49.01V6.35035H46.6V9.75035C46.6 10.7204 47.0601 11.0204 47.7401 11.0204C48.3101 11.0204 48.8 10.8504 49.3 10.5404V12.6304C48.69 12.9504 47.97 13.1104 47.12 13.1104C45.66 13.1104 44.3301 12.4104 44.3301 10.3604V6.35035H43.0601V4.45035H43.05Z" fill="#281F6B"></path><path d="M50.8101 1.88023C50.8101 1.10023 51.4201 0.490234 52.1801 0.490234C52.9401 0.490234 53.5501 1.10023 53.5501 1.88023C53.5501 2.66023 52.9201 3.23023 52.1801 3.23023C51.4401 3.23023 50.8101 2.62023 50.8101 1.88023ZM53.3201 12.9202H51.0401V4.45023H53.3201V12.9202Z" fill="#281F6B"></path><path d="M61.0599 12.5595C60.7799 12.7095 60.1499 12.8495 59.4999 12.8495C56.9399 12.8495 55.1499 11.3695 55.1499 8.59953C55.1499 5.82953 56.9499 4.26953 59.9199 4.26953C61.2299 4.26953 62.4299 4.53953 63.3599 4.91953V12.7995C63.3599 15.7095 61.0199 16.5395 59.1099 16.5395C58.0699 16.5395 57.0799 16.3295 56.1999 15.9095V13.7795C57.2299 14.3695 58.0599 14.6195 59.1099 14.6195C60.2099 14.6195 61.0699 14.0295 61.0699 12.7395V12.5695L61.0599 12.5595ZM61.0599 6.41953C60.7599 6.32953 60.3399 6.24953 59.9199 6.24953C58.3999 6.24953 57.4699 7.02953 57.4699 8.58953C57.4699 10.0495 58.3799 10.9295 59.7699 10.9295C60.2799 10.9295 60.6599 10.8195 61.0599 10.6795V6.41953Z" fill="#281F6B"></path><path d="M68.8 1.62988H77.01V3.73988L71.44 10.8099H77.14V12.9199H68.71V10.8099L74.18 3.73988H68.8V1.62988Z" fill="#281F6B"></path><path d="M86.22 12.6704C85.25 12.9404 83.79 13.1104 82.72 13.1104C80.27 13.1104 78.73 12.3504 78.73 9.84043V4.44043H81.03V9.65043C81.03 10.7304 81.5 11.2304 82.7 11.2304C83.02 11.2304 83.5 11.1904 83.92 11.1204V4.45043H86.22V12.6804V12.6704Z" fill="#281F6B"></path><path d="M88.46 1.88023C88.46 1.10023 89.07 0.490234 89.83 0.490234C90.59 0.490234 91.2 1.10023 91.2 1.88023C91.2 2.66023 90.57 3.23023 89.83 3.23023C89.09 3.23023 88.46 2.62023 88.46 1.88023ZM90.97 12.9202H88.69V4.45023H90.97V12.9202Z" fill="#281F6B"></path><path d="M101.13 12.71C100.12 12.98 98.8101 13.11 97.6701 13.11C94.7501 13.11 92.8101 11.55 92.8101 8.7C92.8101 6 94.6201 4.25 97.2601 4.25C97.8501 4.25 98.4801 4.33 98.8601 4.52V0H101.14V12.71H101.13ZM98.8501 6.54C98.4901 6.37 98.0101 6.27 97.4401 6.27C96.0501 6.27 95.1201 7.13 95.1201 8.63C95.1201 10.24 96.1301 11.16 97.7401 11.16C98.0301 11.16 98.4601 11.14 98.8401 11.07V6.55L98.8501 6.54Z" fill="#281F6B"></path><path d="M103.19 6.9502H108.3V8.9802H103.19V6.9502Z" fill="#281F6B"></path><path d="M117.95 1.62988H120.34V12.9099H117.95V8.32988H112.8V12.9099H110.39V1.62988H112.8V6.20988H117.95V1.62988Z" fill="#281F6B"></path><path d="M126.67 4.25C129.2 4.25 131.12 6.04 131.12 8.68C131.12 11.32 129.2 13.11 126.67 13.11C124.14 13.11 122.24 11.32 122.24 8.68C122.24 6.04 124.14 4.25 126.67 4.25ZM126.67 6.23C125.44 6.23 124.54 7.16 124.54 8.68C124.54 10.2 125.43 11.13 126.67 11.13C127.91 11.13 128.8 10.2 128.8 8.68C128.8 7.16 127.91 6.23 126.67 6.23Z" fill="#281F6B"></path><path d="M135.22 12.92H132.94V0H135.22V12.92Z" fill="#281F6B"></path><path d="M139.97 12.92H137.69V0H139.97V12.92Z" fill="#281F6B"></path><path d="M146.62 7.37C146.62 6.55 145.94 6.21 145.1 6.21C144.09 6.21 143.31 6.51 142.65 6.91V4.93C143.41 4.49 144.42 4.25 145.5 4.25C147.44 4.25 148.88 5.01 148.88 7.27V12.74C148.06 12.93 146.77 13.08 145.69 13.08C143.54 13.08 141.89 12.43 141.89 10.48C141.89 8.71 143.31 7.88 145.69 7.88H146.62V7.37ZM146.62 9.35H145.86C144.8 9.35 144.17 9.65 144.17 10.38C144.17 11.11 144.76 11.42 145.67 11.42C145.92 11.42 146.32 11.4 146.62 11.33V9.35Z" fill="#281F6B"></path><path d="M151.18 4.99977C152.38 4.53977 153.95 4.25977 155.23 4.25977C157.43 4.25977 158.86 5.07977 158.86 7.59977V12.9198H156.56V7.74977C156.56 6.79977 156.05 6.30977 155.06 6.30977C154.51 6.30977 153.94 6.40977 153.46 6.55977V12.9198H151.18V4.99977Z" fill="#281F6B"></path><path d="M168.89 12.71C167.88 12.98 166.57 13.11 165.43 13.11C162.5 13.11 160.57 11.55 160.57 8.7C160.57 6 162.37 4.25 165.02 4.25C165.61 4.25 166.24 4.33 166.62 4.52V0H168.9V12.71H168.89ZM166.61 6.54C166.25 6.37 165.77 6.27 165.2 6.27C163.81 6.27 162.88 7.13 162.88 8.63C162.88 10.24 163.89 11.16 165.5 11.16C165.79 11.16 166.22 11.14 166.6 11.07V6.55L166.61 6.54Z" fill="#281F6B"></path></g><defs><clipPath id="clip0_653_39050"><rect width="168.89" height="16.53" fill="white"></rect></clipPath></defs></svg>